<svg width="1280" height="367" viewBox="0 0 1280 367" fill="none" xmlns="http://www.w3.org/2000/svg">
<rect width="1280" height="367" fill="white"/>
<path d="M517.58 238H507.189L481.35 156.174L455.51 238H445.119L411.76 135.461H424.338L450.246 217.492L476.154 135.461H486.545L512.385 217.287L538.156 135.461H550.803L517.58 238ZM565.158 238V135.461H601.525C611.324 135.461 619.025 137.717 624.631 142.229C630.236 146.74 633.039 152.938 633.039 160.822C633.039 166.428 631.649 171.327 628.869 175.52C626.089 179.667 622.375 182.674 617.727 184.543C623.97 186.092 628.869 189.077 632.424 193.498C636.024 197.873 637.824 203.251 637.824 209.631C637.824 215.282 636.411 220.249 633.586 224.533C630.806 228.771 626.91 232.076 621.896 234.445C616.883 236.815 611.027 238 604.328 238H565.158ZM577.189 180.715H601.252C607.268 180.715 612.076 179.12 615.676 175.93C619.322 172.74 621.145 168.524 621.145 163.283C621.145 157.997 619.299 153.827 615.607 150.773C611.916 147.674 606.88 146.125 600.5 146.125H577.189V180.715ZM577.189 227.336H601.73C606.47 227.336 610.617 226.538 614.172 224.943C617.727 223.303 620.507 221.047 622.512 218.176C624.517 215.259 625.52 211.91 625.52 208.127C625.52 204.436 624.562 201.223 622.648 198.488C620.78 195.754 618.114 193.658 614.65 192.199C611.232 190.695 607.199 189.943 602.551 189.943H577.189V227.336ZM740.979 224.875C736.285 229.615 730.679 233.329 724.162 236.018C717.645 238.706 710.536 240.051 702.834 240.051C695.132 240.051 688.023 238.729 681.506 236.086C675.035 233.443 669.406 229.729 664.621 224.943C659.836 220.113 656.122 214.462 653.479 207.99C650.835 201.473 649.514 194.387 649.514 186.73C649.514 179.029 650.835 171.942 653.479 165.471C656.122 158.954 659.836 153.303 664.621 148.518C669.406 143.732 675.035 140.018 681.506 137.375C688.023 134.732 695.132 133.41 702.834 133.41C710.49 133.41 717.577 134.755 724.094 137.443C730.611 140.087 736.216 143.778 740.91 148.518L732.502 157.062C728.856 153.007 724.481 149.839 719.377 147.561C714.273 145.236 708.69 144.074 702.629 144.074C696.75 144.074 691.327 145.145 686.359 147.287C681.392 149.383 677.062 152.368 673.371 156.242C669.725 160.07 666.877 164.582 664.826 169.777C662.821 174.973 661.818 180.624 661.818 186.73C661.818 192.883 662.821 198.557 664.826 203.752C666.877 208.902 669.725 213.413 673.371 217.287C677.062 221.115 681.392 224.1 686.359 226.242C691.327 228.339 696.75 229.387 702.629 229.387C708.69 229.387 714.273 228.247 719.377 225.969C724.481 223.645 728.856 220.454 732.502 216.398L740.979 224.875ZM879.611 224.875C874.917 229.615 869.312 233.329 862.795 236.018C856.278 238.706 849.169 240.051 841.467 240.051C833.765 240.051 826.656 238.729 820.139 236.086C813.667 233.443 808.039 229.729 803.254 224.943C798.469 220.113 794.755 214.462 792.111 207.99C789.468 201.473 788.146 194.387 788.146 186.73C788.146 179.029 789.468 171.942 792.111 165.471C794.755 158.954 798.469 153.303 803.254 148.518C808.039 143.732 813.667 140.018 820.139 137.375C826.656 134.732 833.765 133.41 841.467 133.41C849.123 133.41 856.21 134.755 862.727 137.443C869.243 140.087 874.849 143.778 879.543 148.518L871.135 157.062C867.489 153.007 863.114 149.839 858.01 147.561C852.906 145.236 847.323 144.074 841.262 144.074C835.383 144.074 829.96 145.145 824.992 147.287C820.025 149.383 815.695 152.368 812.004 156.242C808.358 160.07 805.51 164.582 803.459 169.777C801.454 174.973 800.451 180.624 800.451 186.73C800.451 192.883 801.454 198.557 803.459 203.752C805.51 208.902 808.358 213.413 812.004 217.287C815.695 221.115 820.025 224.1 824.992 226.242C829.96 228.339 835.383 229.387 841.262 229.387C847.323 229.387 852.906 228.247 858.01 225.969C863.114 223.645 867.489 220.454 871.135 216.398L879.611 224.875ZM900.461 238H887.814L929.924 135.461H942.98L985.021 238H972.375L961.232 210.314H911.604L900.461 238ZM915.842 199.65H956.994L936.418 148.449L915.842 199.65ZM998.693 238V135.461H1060.49V146.125H1010.72V180.578H1057.69V191.242H1010.72V238H998.693ZM1081 238V135.461H1143.82V146.125H1093.03V180.578H1141.02V191.242H1093.03V227.336H1144.5V238H1081Z" fill="#15D8E4"/>
<circle cx="183" cy="184" r="140.238" fill="#15D8E4" fill-opacity="0.43"/>
<circle cx="183" cy="184" r="154.5" stroke="#15D8E4"/>
<circle cx="183" cy="184" r="115.135" stroke="#15D8E4"/>
<circle cx="183" cy="184" r="100.873" fill="white"/>
<path d="M148.556 213.524H210.063V179.079C210.063 176.16 210.929 173.306 212.551 170.878C214.173 168.45 216.479 166.558 219.176 165.441C221.874 164.324 224.842 164.032 227.705 164.601C230.569 165.171 233.199 166.577 235.264 168.641C237.328 170.706 238.734 173.336 239.304 176.199C239.873 179.063 239.581 182.031 238.464 184.728C237.346 187.426 235.454 189.731 233.027 191.353C230.599 192.975 227.745 193.841 224.825 193.841H222.365M123.952 228.286H242.048M197.762 164.317H136.254V165.548L136.564 166.04C146.005 180.987 151.016 198.305 151.016 215.984M151.016 112.651V117.571C151.016 126.054 154.386 134.189 160.384 140.188C166.382 146.186 174.517 149.556 183 149.556M195.302 152.016V134.794H183C178.432 134.794 174.052 132.979 170.822 129.749C167.592 126.52 165.778 122.139 165.778 117.571V112.651" stroke="#15D8E4"/>
<path d="M167.223 202.631C167.223 202.474 167.236 202.227 167.262 201.888C167.288 201.55 167.301 201.355 167.301 201.302C167.822 199.193 168.252 197.383 168.59 195.873C168.955 194.362 169.254 193.086 169.489 192.045C169.723 191.003 169.905 190.17 170.036 189.545C170.166 188.92 170.257 188.438 170.309 188.099C170.361 187.735 170.387 187.487 170.387 187.357C170.413 187.201 170.426 187.084 170.426 187.006C170.426 186.849 170.426 186.576 170.426 186.185C170.452 185.795 170.439 185.404 170.387 185.013C170.335 184.597 170.231 184.245 170.075 183.959C169.944 183.646 169.71 183.49 169.372 183.49C169.033 183.49 168.747 183.607 168.512 183.841C168.304 184.05 168.095 184.271 167.887 184.506C167.679 184.714 167.444 184.896 167.184 185.052C166.95 185.209 166.65 185.222 166.286 185.091C166.65 183.998 167.106 183.216 167.653 182.748C168.226 182.279 169.059 182.045 170.153 182.045C170.804 182.045 171.286 182.175 171.598 182.435C171.937 182.67 172.158 182.995 172.262 183.412C172.392 183.802 172.457 184.258 172.457 184.779C172.457 185.3 172.457 185.834 172.457 186.381C172.457 187.37 172.366 188.347 172.184 189.31C172.028 190.274 171.845 191.237 171.637 192.201C171.429 193.164 171.234 194.128 171.051 195.091C170.895 196.055 170.817 197.032 170.817 198.021C170.817 198.073 170.817 198.203 170.817 198.412C170.843 198.594 170.856 198.711 170.856 198.763L171.364 198.256C173.499 195.209 175.205 192.735 176.481 190.834C177.783 188.933 178.812 187.448 179.567 186.381C180.322 185.287 180.908 184.545 181.325 184.154C181.741 183.763 182.132 183.568 182.497 183.568C182.835 183.568 183.095 183.659 183.278 183.841C183.486 184.024 183.642 184.245 183.747 184.506C183.851 184.766 183.916 185.052 183.942 185.365C183.994 185.651 184.02 185.912 184.02 186.146V198.256H184.528L198.161 177.513C198.864 176.472 199.593 175.795 200.348 175.482C201.103 175.144 202.067 175.144 203.239 175.482L199.215 179.545C197.028 182.904 195.179 185.821 193.668 188.295C192.184 190.743 190.934 192.839 189.918 194.584C188.929 196.302 188.122 197.709 187.497 198.802C186.898 199.87 186.39 200.716 185.973 201.341C185.556 201.94 185.192 202.357 184.879 202.591C184.567 202.8 184.202 202.904 183.786 202.904C183.082 202.904 182.562 202.683 182.223 202.24C181.911 201.797 181.689 201.276 181.559 200.677C181.455 200.052 181.403 199.414 181.403 198.763C181.429 198.112 181.442 197.578 181.442 197.162C181.442 196.224 181.442 195.378 181.442 194.623C181.468 193.841 181.494 193.073 181.52 192.318C181.572 191.563 181.624 190.782 181.676 189.974C181.754 189.141 181.859 188.19 181.989 187.123C179.645 190.69 177.718 193.581 176.207 195.795C174.723 198.008 173.512 199.727 172.575 200.951C171.637 202.175 170.895 203.008 170.348 203.451C169.827 203.868 169.345 204.076 168.903 204.076C168.2 204.076 167.744 203.972 167.536 203.763C167.327 203.529 167.223 203.151 167.223 202.631Z" fill="#15D8E4"/>
<path d="M188.234 257C187.161 258.083 185.88 258.932 184.391 259.547C182.901 260.161 181.276 260.469 179.516 260.469C177.755 260.469 176.13 260.167 174.641 259.562C173.161 258.958 171.875 258.109 170.781 257.016C169.688 255.911 168.839 254.62 168.234 253.141C167.63 251.651 167.328 250.031 167.328 248.281C167.328 246.521 167.63 244.901 168.234 243.422C168.839 241.932 169.688 240.641 170.781 239.547C171.875 238.453 173.161 237.604 174.641 237C176.13 236.396 177.755 236.094 179.516 236.094C181.266 236.094 182.885 236.401 184.375 237.016C185.865 237.62 187.146 238.464 188.219 239.547L186.297 241.5C185.464 240.573 184.464 239.849 183.297 239.328C182.13 238.797 180.854 238.531 179.469 238.531C178.125 238.531 176.885 238.776 175.75 239.266C174.615 239.745 173.625 240.427 172.781 241.312C171.948 242.188 171.297 243.219 170.828 244.406C170.37 245.594 170.141 246.885 170.141 248.281C170.141 249.688 170.37 250.984 170.828 252.172C171.297 253.349 171.948 254.38 172.781 255.266C173.625 256.141 174.615 256.823 175.75 257.312C176.885 257.792 178.125 258.031 179.469 258.031C180.854 258.031 182.13 257.771 183.297 257.25C184.464 256.719 185.464 255.99 186.297 255.062L188.234 257ZM193 260H190.109L199.734 236.562H202.719L212.328 260H209.438L206.891 253.672H195.547L193 260ZM196.516 251.234H205.922L201.219 239.531L196.516 251.234ZM215.453 260V236.562H229.578V239H218.203V246.875H228.938V249.312H218.203V260H215.453ZM234.266 260V236.562H248.625V239H237.016V246.875H247.984V249.312H237.016V257.562H248.781V260H234.266Z" fill="#15D8E4"/>
</svg>
